<mxfile host="app.diagrams.net" modified="2023-12-12T11:17:17.031Z" agent="Mozilla/5.0 (Windows NT 10.0; Win64; x64) AppleWebKit/537.36 (KHTML, like Gecko) Chrome/120.0.0.0 Safari/537.36 Edg/120.0.0.0" etag="aNGn0F_owXxD4IOmBsXu" version="22.1.7" type="github">
  <diagram name="第 1 页" id="OeSF2Q3Hymu97Yi94IWJ">
    <mxGraphModel dx="998" dy="620" grid="0" gridSize="10" guides="1" tooltips="1" connect="1" arrows="1" fold="1" page="0" pageScale="1" pageWidth="827" pageHeight="1169" math="0" shadow="0">
      <root>
        <mxCell id="0" />
        <mxCell id="1" parent="0" />
        <mxCell id="dvq6xVh2XTgT-C8ZHbNl-5" value="" style="strokeWidth=1;html=1;shape=mxgraph.flowchart.annotation_1;align=left;pointerEvents=1;direction=south;fontSize=9;" vertex="1" parent="1">
          <mxGeometry x="228" y="223" width="138" height="50" as="geometry" />
        </mxCell>
        <mxCell id="dvq6xVh2XTgT-C8ZHbNl-7" value="" style="strokeWidth=1;html=1;shape=mxgraph.flowchart.annotation_1;align=left;pointerEvents=1;direction=south;fontSize=9;" vertex="1" parent="1">
          <mxGeometry x="490" y="223" width="150" height="50" as="geometry" />
        </mxCell>
        <mxCell id="dvq6xVh2XTgT-C8ZHbNl-8" value="" style="strokeWidth=1;html=1;shape=mxgraph.flowchart.annotation_1;align=left;pointerEvents=1;direction=south;fontSize=9;" vertex="1" parent="1">
          <mxGeometry x="366" y="223" width="124" height="50" as="geometry" />
        </mxCell>
        <mxCell id="dvq6xVh2XTgT-C8ZHbNl-13" value="ATM软件系统" style="rounded=0;whiteSpace=wrap;html=1;fontSize=9;" vertex="1" parent="1">
          <mxGeometry x="428" y="147" width="124" height="36" as="geometry" />
        </mxCell>
        <mxCell id="dvq6xVh2XTgT-C8ZHbNl-15" value="&lt;font style=&quot;font-size: 9px;&quot;&gt;项目管理&lt;/font&gt;" style="rounded=0;whiteSpace=wrap;html=1;fontSize=9;" vertex="1" parent="1">
          <mxGeometry x="189" y="273" width="72" height="29" as="geometry" />
        </mxCell>
        <mxCell id="dvq6xVh2XTgT-C8ZHbNl-16" value="&lt;font style=&quot;font-size: 9px;&quot;&gt;规划&lt;/font&gt;" style="rounded=0;whiteSpace=wrap;html=1;fontSize=9;" vertex="1" parent="1">
          <mxGeometry x="243" y="329" width="57" height="23" as="geometry" />
        </mxCell>
        <mxCell id="dvq6xVh2XTgT-C8ZHbNl-17" value="" style="strokeWidth=1;html=1;shape=mxgraph.flowchart.annotation_1;align=left;pointerEvents=1;fontSize=9;" vertex="1" parent="1">
          <mxGeometry x="193" y="302" width="50" height="35" as="geometry" />
        </mxCell>
        <mxCell id="dvq6xVh2XTgT-C8ZHbNl-18" value="" style="strokeWidth=1;html=1;shape=mxgraph.flowchart.annotation_1;align=left;pointerEvents=1;fontSize=9;" vertex="1" parent="1">
          <mxGeometry x="193" y="337" width="50" height="47" as="geometry" />
        </mxCell>
        <mxCell id="dvq6xVh2XTgT-C8ZHbNl-19" value="&lt;font style=&quot;font-size: 9px;&quot;&gt;需求分析&lt;/font&gt;" style="rounded=0;whiteSpace=wrap;html=1;fontSize=9;" vertex="1" parent="1">
          <mxGeometry x="334" y="273" width="73" height="29" as="geometry" />
        </mxCell>
        <mxCell id="dvq6xVh2XTgT-C8ZHbNl-20" value="&lt;font style=&quot;font-size: 9px;&quot;&gt;系统分析设计&lt;/font&gt;" style="rounded=0;whiteSpace=wrap;html=1;fontSize=9;" vertex="1" parent="1">
          <mxGeometry x="456" y="273" width="64" height="29" as="geometry" />
        </mxCell>
        <mxCell id="dvq6xVh2XTgT-C8ZHbNl-21" value="编码与测试" style="rounded=0;whiteSpace=wrap;html=1;fontSize=9;" vertex="1" parent="1">
          <mxGeometry x="605" y="273" width="60" height="29" as="geometry" />
        </mxCell>
        <mxCell id="dvq6xVh2XTgT-C8ZHbNl-24" value="&lt;font style=&quot;font-size: 9px;&quot;&gt;管理&lt;/font&gt;" style="rounded=0;whiteSpace=wrap;html=1;fontSize=9;" vertex="1" parent="1">
          <mxGeometry x="241" y="423" width="57" height="23" as="geometry" />
        </mxCell>
        <mxCell id="dvq6xVh2XTgT-C8ZHbNl-25" value="&lt;font style=&quot;font-size: 9px;&quot;&gt;会议&lt;/font&gt;" style="rounded=0;whiteSpace=wrap;html=1;fontSize=9;" vertex="1" parent="1">
          <mxGeometry x="243" y="372" width="57" height="23" as="geometry" />
        </mxCell>
        <mxCell id="dvq6xVh2XTgT-C8ZHbNl-28" value="" style="strokeWidth=1;html=1;shape=mxgraph.flowchart.annotation_1;align=left;pointerEvents=1;fontSize=9;" vertex="1" parent="1">
          <mxGeometry x="193" y="384" width="50" height="50" as="geometry" />
        </mxCell>
        <mxCell id="dvq6xVh2XTgT-C8ZHbNl-29" value="&lt;font style=&quot;font-size: 9px;&quot;&gt;收集用户需求&lt;/font&gt;" style="rounded=0;whiteSpace=wrap;html=1;fontSize=9;" vertex="1" parent="1">
          <mxGeometry x="384" y="329" width="57" height="23" as="geometry" />
        </mxCell>
        <mxCell id="dvq6xVh2XTgT-C8ZHbNl-30" value="" style="strokeWidth=1;html=1;shape=mxgraph.flowchart.annotation_1;align=left;pointerEvents=1;fontSize=9;" vertex="1" parent="1">
          <mxGeometry x="334" y="302" width="50" height="35" as="geometry" />
        </mxCell>
        <mxCell id="dvq6xVh2XTgT-C8ZHbNl-31" value="" style="strokeWidth=1;html=1;shape=mxgraph.flowchart.annotation_1;align=left;pointerEvents=1;fontSize=9;" vertex="1" parent="1">
          <mxGeometry x="334" y="337" width="50" height="47" as="geometry" />
        </mxCell>
        <mxCell id="dvq6xVh2XTgT-C8ZHbNl-32" value="&lt;font style=&quot;font-size: 9px;&quot;&gt;定义系统需求&lt;/font&gt;" style="rounded=0;whiteSpace=wrap;html=1;fontSize=9;" vertex="1" parent="1">
          <mxGeometry x="384" y="423" width="57" height="23" as="geometry" />
        </mxCell>
        <mxCell id="dvq6xVh2XTgT-C8ZHbNl-33" value="&lt;font style=&quot;font-size: 9px;&quot;&gt;分析用户需求&lt;/font&gt;" style="rounded=0;whiteSpace=wrap;html=1;fontSize=9;" vertex="1" parent="1">
          <mxGeometry x="382" y="372" width="57" height="23" as="geometry" />
        </mxCell>
        <mxCell id="dvq6xVh2XTgT-C8ZHbNl-34" value="" style="strokeWidth=1;html=1;shape=mxgraph.flowchart.annotation_1;align=left;pointerEvents=1;fontSize=9;" vertex="1" parent="1">
          <mxGeometry x="334" y="384" width="50" height="50" as="geometry" />
        </mxCell>
        <mxCell id="dvq6xVh2XTgT-C8ZHbNl-35" value="&lt;font style=&quot;font-size: 9px;&quot;&gt;界面设计&lt;/font&gt;" style="rounded=0;whiteSpace=wrap;html=1;fontSize=9;" vertex="1" parent="1">
          <mxGeometry x="510" y="329" width="57" height="23" as="geometry" />
        </mxCell>
        <mxCell id="dvq6xVh2XTgT-C8ZHbNl-36" value="" style="strokeWidth=1;html=1;shape=mxgraph.flowchart.annotation_1;align=left;pointerEvents=1;fontSize=9;" vertex="1" parent="1">
          <mxGeometry x="460" y="302" width="50" height="35" as="geometry" />
        </mxCell>
        <mxCell id="dvq6xVh2XTgT-C8ZHbNl-37" value="" style="strokeWidth=1;html=1;shape=mxgraph.flowchart.annotation_1;align=left;pointerEvents=1;fontSize=9;" vertex="1" parent="1">
          <mxGeometry x="460" y="337" width="50" height="47" as="geometry" />
        </mxCell>
        <mxCell id="dvq6xVh2XTgT-C8ZHbNl-39" value="&lt;font style=&quot;font-size: 9px;&quot;&gt;数据库设计&lt;/font&gt;" style="rounded=0;whiteSpace=wrap;html=1;fontSize=9;" vertex="1" parent="1">
          <mxGeometry x="508" y="372" width="57" height="23" as="geometry" />
        </mxCell>
        <mxCell id="dvq6xVh2XTgT-C8ZHbNl-40" value="" style="strokeWidth=1;html=1;shape=mxgraph.flowchart.annotation_1;align=left;pointerEvents=1;fontSize=9;" vertex="1" parent="1">
          <mxGeometry x="460" y="384" width="50" height="50" as="geometry" />
        </mxCell>
        <mxCell id="dvq6xVh2XTgT-C8ZHbNl-41" value="" style="strokeWidth=1;html=1;shape=mxgraph.flowchart.annotation_1;align=left;pointerEvents=1;fontSize=9;" vertex="1" parent="1">
          <mxGeometry x="334" y="434" width="50" height="50" as="geometry" />
        </mxCell>
        <mxCell id="dvq6xVh2XTgT-C8ZHbNl-42" value="&lt;font style=&quot;font-size: 9px;&quot;&gt;编写需求分析分档&lt;/font&gt;" style="rounded=0;whiteSpace=wrap;html=1;fontSize=9;" vertex="1" parent="1">
          <mxGeometry x="384" y="474" width="57" height="23" as="geometry" />
        </mxCell>
        <mxCell id="dvq6xVh2XTgT-C8ZHbNl-43" value="&lt;span style=&quot;font-size: 9px;&quot;&gt;交易处理设计&lt;/span&gt;" style="rounded=0;whiteSpace=wrap;html=1;fontSize=9;" vertex="1" parent="1">
          <mxGeometry x="510" y="423" width="57" height="23" as="geometry" />
        </mxCell>
        <mxCell id="dvq6xVh2XTgT-C8ZHbNl-45" value="" style="strokeWidth=1;html=1;shape=mxgraph.flowchart.annotation_1;align=left;pointerEvents=1;fontSize=9;" vertex="1" parent="1">
          <mxGeometry x="460" y="434" width="50" height="50" as="geometry" />
        </mxCell>
        <mxCell id="dvq6xVh2XTgT-C8ZHbNl-46" value="&lt;font style=&quot;font-size: 9px;&quot;&gt;安全性设计&lt;/font&gt;" style="rounded=0;whiteSpace=wrap;html=1;fontSize=9;" vertex="1" parent="1">
          <mxGeometry x="510" y="474" width="57" height="23" as="geometry" />
        </mxCell>
        <mxCell id="dvq6xVh2XTgT-C8ZHbNl-54" value="&lt;font style=&quot;font-size: 9px;&quot;&gt;编写前端代码&lt;/font&gt;" style="rounded=0;whiteSpace=wrap;html=1;fontSize=9;" vertex="1" parent="1">
          <mxGeometry x="655" y="329" width="57" height="23" as="geometry" />
        </mxCell>
        <mxCell id="dvq6xVh2XTgT-C8ZHbNl-55" value="" style="strokeWidth=1;html=1;shape=mxgraph.flowchart.annotation_1;align=left;pointerEvents=1;fontSize=9;" vertex="1" parent="1">
          <mxGeometry x="605" y="337" width="50" height="47" as="geometry" />
        </mxCell>
        <mxCell id="dvq6xVh2XTgT-C8ZHbNl-56" value="编写后端代码" style="rounded=0;whiteSpace=wrap;html=1;fontSize=9;" vertex="1" parent="1">
          <mxGeometry x="653" y="372" width="57" height="23" as="geometry" />
        </mxCell>
        <mxCell id="dvq6xVh2XTgT-C8ZHbNl-57" value="" style="strokeWidth=1;html=1;shape=mxgraph.flowchart.annotation_1;align=left;pointerEvents=1;fontSize=9;" vertex="1" parent="1">
          <mxGeometry x="605" y="384" width="50" height="50" as="geometry" />
        </mxCell>
        <mxCell id="dvq6xVh2XTgT-C8ZHbNl-58" value="&lt;span style=&quot;font-size: 9px;&quot;&gt;单元测试&lt;/span&gt;" style="rounded=0;whiteSpace=wrap;html=1;fontSize=9;" vertex="1" parent="1">
          <mxGeometry x="655" y="423" width="57" height="23" as="geometry" />
        </mxCell>
        <mxCell id="dvq6xVh2XTgT-C8ZHbNl-59" value="" style="strokeWidth=1;html=1;shape=mxgraph.flowchart.annotation_1;align=left;pointerEvents=1;fontSize=9;" vertex="1" parent="1">
          <mxGeometry x="605" y="434" width="50" height="50" as="geometry" />
        </mxCell>
        <mxCell id="dvq6xVh2XTgT-C8ZHbNl-60" value="集成测试" style="rounded=0;whiteSpace=wrap;html=1;fontSize=9;" vertex="1" parent="1">
          <mxGeometry x="655" y="474" width="57" height="23" as="geometry" />
        </mxCell>
        <mxCell id="dvq6xVh2XTgT-C8ZHbNl-69" value="" style="strokeWidth=1;html=1;shape=mxgraph.flowchart.annotation_1;align=left;pointerEvents=1;fontSize=9;" vertex="1" parent="1">
          <mxGeometry x="605" y="302" width="50" height="35" as="geometry" />
        </mxCell>
        <mxCell id="dvq6xVh2XTgT-C8ZHbNl-70" value="" style="strokeWidth=1;html=1;shape=mxgraph.flowchart.annotation_1;align=left;pointerEvents=1;fontSize=9;" vertex="1" parent="1">
          <mxGeometry x="605" y="484" width="50" height="50" as="geometry" />
        </mxCell>
        <mxCell id="dvq6xVh2XTgT-C8ZHbNl-73" value="系统测试" style="rounded=0;whiteSpace=wrap;html=1;fontSize=9;" vertex="1" parent="1">
          <mxGeometry x="653" y="523" width="57" height="23" as="geometry" />
        </mxCell>
        <mxCell id="dvq6xVh2XTgT-C8ZHbNl-74" value="" style="strokeWidth=1;html=1;shape=mxgraph.flowchart.annotation_1;align=left;pointerEvents=1;direction=south;fontSize=9;" vertex="1" parent="1">
          <mxGeometry x="640" y="223" width="150" height="50" as="geometry" />
        </mxCell>
        <mxCell id="dvq6xVh2XTgT-C8ZHbNl-75" value="部署和维护" style="rounded=0;whiteSpace=wrap;html=1;fontSize=9;" vertex="1" parent="1">
          <mxGeometry x="765" y="273" width="60" height="29" as="geometry" />
        </mxCell>
        <mxCell id="dvq6xVh2XTgT-C8ZHbNl-76" value="&lt;font style=&quot;font-size: 9px;&quot;&gt;系统部署&lt;/font&gt;" style="rounded=0;whiteSpace=wrap;html=1;fontSize=9;" vertex="1" parent="1">
          <mxGeometry x="815" y="329" width="57" height="23" as="geometry" />
        </mxCell>
        <mxCell id="dvq6xVh2XTgT-C8ZHbNl-77" value="" style="strokeWidth=1;html=1;shape=mxgraph.flowchart.annotation_1;align=left;pointerEvents=1;fontSize=9;" vertex="1" parent="1">
          <mxGeometry x="765" y="337" width="50" height="47" as="geometry" />
        </mxCell>
        <mxCell id="dvq6xVh2XTgT-C8ZHbNl-78" value="用户培训" style="rounded=0;whiteSpace=wrap;html=1;fontSize=9;" vertex="1" parent="1">
          <mxGeometry x="813" y="372" width="57" height="23" as="geometry" />
        </mxCell>
        <mxCell id="dvq6xVh2XTgT-C8ZHbNl-79" value="" style="strokeWidth=1;html=1;shape=mxgraph.flowchart.annotation_1;align=left;pointerEvents=1;fontSize=9;" vertex="1" parent="1">
          <mxGeometry x="765" y="384" width="50" height="50" as="geometry" />
        </mxCell>
        <mxCell id="dvq6xVh2XTgT-C8ZHbNl-80" value="&lt;span style=&quot;font-size: 9px;&quot;&gt;系统维护&lt;/span&gt;" style="rounded=0;whiteSpace=wrap;html=1;fontSize=9;" vertex="1" parent="1">
          <mxGeometry x="815" y="423" width="57" height="23" as="geometry" />
        </mxCell>
        <mxCell id="dvq6xVh2XTgT-C8ZHbNl-81" value="" style="strokeWidth=1;html=1;shape=mxgraph.flowchart.annotation_1;align=left;pointerEvents=1;fontSize=9;" vertex="1" parent="1">
          <mxGeometry x="765" y="434" width="50" height="50" as="geometry" />
        </mxCell>
        <mxCell id="dvq6xVh2XTgT-C8ZHbNl-82" value="故障排除与支持" style="rounded=0;whiteSpace=wrap;html=1;fontSize=9;" vertex="1" parent="1">
          <mxGeometry x="815" y="474" width="57" height="23" as="geometry" />
        </mxCell>
        <mxCell id="dvq6xVh2XTgT-C8ZHbNl-83" value="" style="strokeWidth=1;html=1;shape=mxgraph.flowchart.annotation_1;align=left;pointerEvents=1;fontSize=9;" vertex="1" parent="1">
          <mxGeometry x="765" y="302" width="50" height="35" as="geometry" />
        </mxCell>
        <mxCell id="dvq6xVh2XTgT-C8ZHbNl-87" value="" style="endArrow=none;html=1;rounded=0;exitX=0;exitY=1;exitDx=0;exitDy=0;exitPerimeter=0;fontSize=9;" edge="1" parent="1" source="dvq6xVh2XTgT-C8ZHbNl-7" target="dvq6xVh2XTgT-C8ZHbNl-13">
          <mxGeometry width="50" height="50" relative="1" as="geometry">
            <mxPoint x="488" y="215" as="sourcePoint" />
            <mxPoint x="649" y="389" as="targetPoint" />
          </mxGeometry>
        </mxCell>
      </root>
    </mxGraphModel>
  </diagram>
</mxfile>
